<?xml version="1.0" standalone="no"?>
<!DOCTYPE svg PUBLIC "-//W3C//DTD SVG 20010904//EN"
 "http://www.w3.org/TR/2001/REC-SVG-20010904/DTD/svg10.dtd">
<svg version="1.0" xmlns="http://www.w3.org/2000/svg"
 width="700.000000pt" height="700.000000pt" viewBox="0 0 700.000000 700.000000"
 preserveAspectRatio="xMidYMid meet">
<metadata>
Created by potrace 1.11, written by Peter Selinger 2001-2013
</metadata>
<g transform="translate(0.000000,700.000000) scale(0.100000,-0.100000)"
fill="#000000" stroke="none">
<path d="M3350 6984 c-146 -31 -265 -97 -372 -205 -73 -73 -81 -78 -164 -104
-589 -184 -1102 -631 -1364 -1190 -62 -132 -129 -313 -130 -346 0 -10 -35 -53
-77 -96 -96 -98 -95 -97 -143 -186 -92 -171 -112 -395 -50 -577 40 -118 101
-214 195 -305 60 -58 64 -64 105 -185 89 -265 240 -534 415 -740 47 -55 235
-242 288 -286 l48 -40 -10 -45 c-5 -24 -12 -66 -16 -93 -3 -27 -8 -52 -9 -55
-2 -3 -7 -31 -11 -61 -4 -30 -9 -64 -11 -75 -2 -11 -6 -36 -8 -56 -3 -19 -21
-129 -40 -245 -19 -115 -40 -238 -45 -274 -6 -36 -13 -76 -16 -89 -2 -12 -7
-42 -9 -65 -3 -22 -8 -53 -11 -68 -3 -16 -7 -40 -10 -55 -3 -16 -8 -48 -11
-73 -3 -25 -7 -53 -10 -63 -3 -10 -7 -32 -10 -49 -2 -18 -13 -88 -24 -157 -12
-69 -23 -137 -25 -151 -22 -136 -36 -219 -40 -240 -5 -24 -13 -76 -20 -127 -2
-15 -6 -41 -9 -58 -7 -39 -13 -75 -25 -155 -6 -36 -13 -74 -15 -85 -2 -11 -7
-42 -10 -69 -4 -27 -9 -52 -11 -55 -1 -3 -6 -33 -9 -65 -4 -32 -8 -62 -10 -65
-2 -3 -7 -31 -11 -61 -4 -30 -9 -58 -12 -62 -2 -5 133 -8 301 -8 284 0 306 1
307 18 0 9 2 24 4 32 1 8 6 33 9 55 32 195 67 414 70 430 8 42 16 92 21 130 3
22 12 76 20 120 8 44 17 100 20 125 3 25 8 52 10 60 2 8 6 33 10 55 3 22 8 51
10 65 25 151 35 210 39 240 3 19 7 44 10 55 2 11 7 42 10 68 4 27 9 59 12 70
2 12 7 38 9 57 3 19 8 51 11 70 4 19 8 48 10 64 2 17 11 71 20 120 8 50 17
103 20 119 6 40 12 78 18 112 3 17 15 89 26 160 30 191 29 186 48 176 29 -15
144 -53 227 -76 l80 -22 5 -373 5 -373 257 258 258 258 257 -257 258 -258 5
373 5 373 35 8 c56 14 212 64 252 81 l37 15 6 -41 c4 -23 9 -51 11 -62 2 -11
10 -63 19 -115 9 -52 18 -106 20 -120 2 -14 12 -79 24 -145 11 -67 23 -136 25
-155 6 -40 16 -102 22 -134 2 -11 7 -41 10 -66 3 -25 7 -52 9 -60 2 -8 7 -37
11 -65 3 -27 8 -52 9 -55 2 -3 6 -26 10 -50 3 -25 10 -67 15 -95 5 -27 12 -68
15 -90 6 -41 9 -58 25 -155 5 -30 12 -75 15 -100 4 -24 8 -47 10 -50 1 -3 6
-27 9 -55 4 -27 11 -75 16 -105 17 -100 29 -174 35 -215 3 -22 15 -94 26 -160
12 -66 22 -129 24 -140 1 -11 8 -55 15 -97 l13 -78 303 0 c238 0 302 3 299 13
-3 10 -47 275 -60 363 -2 16 -6 38 -8 49 -3 11 -7 41 -11 66 -4 25 -9 57 -11
70 -17 100 -117 711 -121 739 -3 19 -7 46 -10 60 -2 14 -6 41 -9 60 -3 19 -6
44 -9 55 -2 11 -7 40 -11 65 -3 25 -8 56 -10 70 -3 14 -20 122 -40 240 -69
418 -86 521 -90 548 -2 15 -6 41 -8 57 -3 17 -13 75 -22 130 -9 55 -18 110
-20 122 -3 16 14 36 73 86 298 252 549 625 672 997 40 121 43 127 104 185 159
153 238 345 231 560 -7 202 -78 362 -225 506 -57 56 -77 83 -85 119 -7 30 -28
96 -35 109 -4 9 -18 43 -30 76 -125 328 -367 668 -640 896 -67 56 -188 149
-194 149 -2 0 -30 18 -62 39 -135 90 -360 194 -530 246 -81 25 -93 32 -136 79
-136 153 -315 235 -523 241 -69 2 -134 -2 -175 -11z"/>
</g>
</svg>
