<?xml version="1.0" standalone="no"?>
<!DOCTYPE svg PUBLIC "-//W3C//DTD SVG 20010904//EN"
 "http://www.w3.org/TR/2001/REC-SVG-20010904/DTD/svg10.dtd">
<svg version="1.0" xmlns="http://www.w3.org/2000/svg"
 width="1232.000000pt" height="1232.000000pt" viewBox="0 0 1232.000000 1232.000000"
 preserveAspectRatio="xMidYMid meet">
<metadata>
Created by potrace 1.11, written by Peter Selinger 2001-2013
</metadata>
<g transform="translate(0.000000,1232.000000) scale(0.100000,-0.100000)"
fill="#000000" stroke="none">
<path d="M5475 12305 c-67 -34 -65 -22 -65 -395 l0 -337 -42 -19 c-60 -27
-159 -128 -192 -195 -58 -120 -56 -66 -56 -1299 0 -1236 -2 -1187 56 -1302 34
-67 116 -153 182 -190 l52 -30 -1 -2401 c0 -1385 -4 -2394 -9 -2382 -5 11 -32
108 -60 215 -384 1462 -1032 2811 -1786 3715 -150 180 -307 349 -391 420 -162
139 -237 138 -280 -1 -66 -213 57 -1914 213 -2959 297 -1987 797 -3229 1517
-3769 220 -165 447 -250 694 -261 l98 -5 5 -522 c3 -288 9 -529 13 -536 15
-23 86 -52 127 -52 49 0 90 20 119 56 20 26 21 37 21 342 l0 316 69 155 c79
178 142 359 165 476 34 174 38 258 29 740 -7 435 -8 694 -1 701 2 1 30 -4 63
-12 33 -7 95 -14 137 -14 516 -1 934 540 1217 1575 27 99 79 315 117 480 80
355 85 425 41 512 -53 103 -181 173 -289 158 -71 -10 -176 -67 -311 -168 -327
-246 -583 -533 -797 -895 -23 -40 -44 -71 -46 -70 -6 7 60 312 111 513 75 296
193 652 304 918 l33 77 47 0 c26 0 74 9 106 20 128 44 212 122 299 279 206
368 1005 1847 1024 1896 18 43 26 86 30 152 5 103 -6 161 -45 240 l-26 52 83
138 c68 114 84 147 87 188 9 116 -102 188 -206 133 -39 -20 -53 -38 -121 -158
l-78 -135 -101 -6 c-90 -6 -111 -11 -175 -43 -87 -42 -168 -118 -218 -202 -73
-122 -1033 -1901 -1057 -1959 -22 -52 -26 -75 -26 -175 0 -105 2 -120 28 -175
15 -33 41 -76 57 -97 l30 -36 -64 -159 c-255 -638 -405 -1248 -491 -2008 l-23
-200 -1 2470 0 2470 37 17 c94 44 186 159 223 278 19 63 19 93 17 1235 -3
1169 -3 1170 -24 1227 -40 105 -128 209 -211 249 l-43 21 0 333 c0 322 -1 333
-21 359 -43 55 -130 73 -194 41z m5 -2246 c0 -972 -3 -1220 -12 -1217 -7 2
-23 24 -35 48 l-23 44 0 1117 c0 824 3 1125 12 1150 13 38 39 78 51 79 4 0 7
-549 7 -1221z m2140 -1695 c0 -12 -1165 -2144 -1172 -2144 -14 0 -19 67 -9
106 12 46 1053 1958 1083 1991 28 30 98 64 98 47z m-4433 -686 c70 -77 401
-533 535 -738 622 -951 1095 -2033 1383 -3165 120 -472 193 -860 260 -1380 3
-26 -20 21 -64 130 -89 223 -262 610 -359 805 -61 122 -84 160 -111 177 -88
59 -209 0 -218 -104 -4 -44 4 -66 92 -253 300 -637 431 -978 566 -1470 38
-140 69 -260 69 -267 0 -17 -49 -17 -142 1 -525 101 -1006 717 -1353 1738
-335 980 -543 2242 -665 4023 -39 561 -39 553 7 503z m4083 -2500 c0 -11 -15
-85 -34 -162 -19 -78 -51 -213 -71 -301 -157 -675 -352 -1151 -589 -1435 -114
-136 -254 -220 -383 -228 -82 -5 -184 12 -215 37 l-20 17 27 134 c144 712 500
1341 995 1756 91 77 267 204 281 204 5 0 9 -10 9 -22z"/>
</g>
</svg>
